<svg width="900" height="700" viewBox="0 0 900 700" fill="none" xmlns="http://www.w3.org/2000/svg">
  <rect width="900" height="700" fill="#223E33"/>
  <rect width="900" height="700" fill="url(#paint0_linear_5_2)"/>
  <circle cx="744" cy="140" r="60" fill="#E9B36D"/>
  <path d="M0 450L106 426L210 448L354 364L494 440L634 350L772 438L900 392V700H0V450Z" fill="#516C55"/>
  <path d="M0 516L142 488L280 522L430 458L592 526L718 472L900 540V700H0V516Z" fill="#3D5847"/>
  <path d="M294 406L340 374L374 406V454H294V406Z" fill="#F3E2C4"/>
  <path d="M384 388L432 354L470 388V454H384V388Z" fill="#F0D4A9"/>
  <text x="74" y="112" fill="#FFF4E7" font-family="Georgia, serif" font-size="52">Dadeldhura</text>
  <text x="76" y="156" fill="#F6E7CC" font-family="Arial, sans-serif" font-size="20" letter-spacing="4">RIDGELINE TOWNS, COOL CLIMATE</text>
  <defs>
    <linearGradient id="paint0_linear_5_2" x1="450" y1="0" x2="450" y2="700" gradientUnits="userSpaceOnUse">
      <stop stop-color="#365347"/>
      <stop offset="1" stop-color="#85946F"/>
    </linearGradient>
  </defs>
</svg>
