<svg width="900" height="700" viewBox="0 0 900 700" fill="none" xmlns="http://www.w3.org/2000/svg">
  <rect width="900" height="700" fill="#28473C"/>
  <rect width="900" height="700" fill="url(#paint0_linear_4_2)"/>
  <path d="M0 484C124 434 176 464 288 424C412 380 492 446 614 406C734 366 790 406 900 372V700H0V484Z" fill="#BBAE62"/>
  <path d="M0 542C126 506 198 534 320 494C440 454 560 538 696 496C792 466 826 478 900 458V700H0V542Z" fill="#8C8F47"/>
  <path d="M0 592C116 560 202 578 344 548C508 514 632 610 774 566C842 544 866 548 900 536V700H0V592Z" fill="#5A6637"/>
  <circle cx="688" cy="164" r="66" fill="#E7B16C"/>
  <text x="70" y="116" fill="#FFF4E7" font-family="Georgia, serif" font-size="50">Shuklaphanta</text>
  <text x="72" y="160" fill="#F3E6C8" font-family="Arial, sans-serif" font-size="20" letter-spacing="4">GRASSLANDS, SWAMP DEER, SAFARI</text>
  <defs>
    <linearGradient id="paint0_linear_4_2" x1="450" y1="0" x2="450" y2="700" gradientUnits="userSpaceOnUse">
      <stop stop-color="#466E5D"/>
      <stop offset="1" stop-color="#C7B860"/>
    </linearGradient>
  </defs>
</svg>
